<?xml version="1.0" encoding="UTF-8" standalone="no"?>
<!-- Created with Inkscape (http://www.inkscape.org/) -->

<svg
   xmlns:dc="http://purl.org/dc/elements/1.1/"
   xmlns:cc="http://creativecommons.org/ns#"
   xmlns:rdf="http://www.w3.org/1999/02/22-rdf-syntax-ns#"
   xmlns:svg="http://www.w3.org/2000/svg"
   xmlns="http://www.w3.org/2000/svg"
   xmlns:sodipodi="http://sodipodi.sourceforge.net/DTD/sodipodi-0.dtd"
   xmlns:inkscape="http://www.inkscape.org/namespaces/inkscape"
   width="450"
   height="150"
   viewBox="0 0 450 150"
   id="svg2"
   version="1.1"
   inkscape:version="0.91 r13725"
   sodipodi:docname="logo-books-library.svg">
  <defs
     id="defs4" />
  <sodipodi:namedview
     id="base"
     pagecolor="#ffffff"
     bordercolor="#666666"
     borderopacity="0.51764706"
     inkscape:pageopacity="0.55686275"
     inkscape:pageshadow="2"
     inkscape:zoom="1.979899"
     inkscape:cx="264.89875"
     inkscape:cy="56.756636"
     inkscape:document-units="px"
     inkscape:current-layer="layer1"
     showgrid="false"
     inkscape:window-width="1855"
     inkscape:window-height="1056"
     inkscape:window-x="65"
     inkscape:window-y="24"
     inkscape:window-maximized="1"
     units="px"
     inkscape:snap-text-baseline="true"
     showguides="true"
     inkscape:guide-bbox="true"
     inkscape:snap-page="true">
    <sodipodi:guide
       position="108.5914,159.6041"
       orientation="1,0"
       id="guide3393" />
  </sodipodi:namedview>
  <metadata
     id="metadata7">
    <rdf:RDF>
      <cc:Work
         rdf:about="">
        <dc:format>image/svg+xml</dc:format>
        <dc:type
           rdf:resource="http://purl.org/dc/dcmitype/StillImage" />
        <dc:title></dc:title>
      </cc:Work>
    </rdf:RDF>
  </metadata>
  <g
     inkscape:label="Layer 1"
     inkscape:groupmode="layer"
     id="layer1"
     transform="translate(0,-902.36216)">
    <text
       xml:space="preserve"
       style="font-style:normal;font-weight:normal;font-size:40px;line-height:125%;font-family:sans-serif;letter-spacing:0px;word-spacing:0px;fill:#000000;fill-opacity:1;stroke:none;stroke-width:1px;stroke-linecap:butt;stroke-linejoin:miter;stroke-opacity:1"
       x="115.41016"
       y="974.36218"
       id="text3355"
       sodipodi:linespacing="125%"><tspan
         sodipodi:role="line"
         x="115.41016"
         y="974.36218"
         id="tspan3359"
         style="font-weight:bold;font-size:50px;fill:#4788c7;fill-opacity:1">Book</tspan></text>
    <flowRoot
       xml:space="preserve"
       id="flowRoot3363"
       style="font-style:normal;font-weight:normal;font-size:40px;line-height:125%;font-family:sans-serif;letter-spacing:0px;word-spacing:0px;fill:#000000;fill-opacity:1;stroke:none;stroke-width:1px;stroke-linecap:butt;stroke-linejoin:miter;stroke-opacity:1"
       transform="translate(0,902.36216)"><flowRegion
         id="flowRegion3365"><rect
           id="rect3367"
           width="2.8571429"
           height="42.857143"
           x="42.857143"
           y="25.714285" /></flowRegion><flowPara
         id="flowPara3369">Li</flowPara></flowRoot>    <text
       xml:space="preserve"
       style="font-style:normal;font-weight:normal;font-size:40px;line-height:125%;font-family:sans-serif;letter-spacing:0px;word-spacing:0px;fill:#4788c7;fill-opacity:1;stroke:none;stroke-width:1px;stroke-linecap:butt;stroke-linejoin:miter;stroke-opacity:1"
       x="115.41016"
       y="1018.0367"
       id="text3355-3"
       sodipodi:linespacing="125%"><tspan
         sodipodi:role="line"
         x="115.41016"
         y="1018.0367"
         id="tspan3359-6"
         style="font-weight:bold;font-size:50px;fill:#4788c7;fill-opacity:1">Library</tspan></text>
    <g
       transform="matrix(0.2060571,0,0,0.26728663,2.3778521,910.08769)"
       id="g3">
      <g
         id="g5">
        <polygon
           style="fill:#ffd0a1"
           points="276.333,139.8 242.2,139.8 242.2,259.267 276.333,259.267 "
           id="polygon7" />
        <path
           inkscape:connector-curvature="0"
           style="fill:#ffd0a1"
           d="m 310.467,71.533 0,426.667 85.333,0 0,-375.467 0,-51.2 0,-34.133 c 0,-9.387 -7.68,-17.067 -17.067,-17.067 l -51.2,0 c -9.387,0 -17.067,7.68 -17.067,17.067 l 0,34.133 z"
           id="path9" />
      </g>
      <g
         id="g11">
        <path
           inkscape:connector-curvature="0"
           style="fill:#80d6fa"
           d="m 498.2,122.733 0,358.4 c 0,9.387 -7.68,17.067 -17.067,17.067 l -85.333,0 0,-375.467 102.4,0 z m 0,-34.133 0,34.133 -102.4,0 0,-51.2 85.333,0 c 9.387,0 17.067,7.68 17.067,17.067 z"
           id="path13" />
        <path
           inkscape:connector-curvature="0"
           style="fill:#80d6fa"
           d="m 122.733,259.267 51.2,0 0,-119.467 -51.2,0 0,119.467 z m 85.334,-204.8 0,443.733 -119.467,0 0,-392.533 0,-51.2 119.467,0 z m 0,0 -119.467,0 0,-34.134 c 0,-9.387 7.68,-17.067 17.067,-17.067 l 85.333,0 c 9.387,0 17.067,7.68 17.067,17.067 l 0,17.067 0,17.067 z"
           id="path15" />
      </g>
      <path
         inkscape:connector-curvature="0"
         style="fill:#ff7474"
         d="m 88.6,105.667 0,392.533 -68.267,0 c -9.387,0 -17.067,-7.68 -17.067,-17.067 l 0,-409.6 c 0,-9.387 7.68,-17.067 17.067,-17.067 l 68.267,0 0,51.201 z"
         id="path17" />
      <polygon
         style="fill:#aab1ba"
         points="173.933,139.8 122.733,139.8 122.733,259.267 173.933,259.267 "
         id="polygon19" />
      <path
         inkscape:connector-curvature="0"
         style="fill:#f2edda"
         d="m 242.2,259.267 34.133,0 0,-119.467 -34.133,0 0,119.467 z m 68.267,-187.734 0,426.667 -102.4,0 0,-443.733 0,-17.067 102.4,0 0,34.133 z"
         id="path21" />
    </g>
    <path
       inkscape:connector-curvature="0"
       style="fill:#51565f"
       d="m 102.39289,1046.0016 -94.6791419,0 c -2.4545222,0 -4.383238,-2.5502 -4.383238,-5.7959 l 0,-111.27994 c 0,-3.24549 1.9287158,-5.79574 4.383238,-5.79574 l 7.0131969,0 c 0.525987,0 0.87673,0.46377 0.87673,1.15925 0,0.69551 -0.350743,1.15926 -0.87673,1.15926 l -7.0131969,0 c -1.4027284,0 -2.6299834,1.62275 -2.6299834,3.4775 l 0,111.27997 c 0,1.8548 1.227255,3.4774 2.6299834,3.4774 l 13.1498679,0 0,-104.32487 -9.643167,0 c -0.525999,0 -0.876729,-0.46374 -0.876729,-1.15924 0,-0.6955 0.35073,-1.15925 0.876729,-1.15925 l 9.643167,0 0,-22.02426 c 0,-3.24549 1.928729,-5.79575 4.383444,-5.79575 l 17.533106,0 c 2.454716,0 4.383226,2.55026 4.383226,5.79575 l 0,3.47748 13.149881,0 c 0.525987,0 0.876716,0.46378 0.876716,1.15926 0,0.69551 -0.350729,1.15926 -0.876716,1.15926 l -13.149881,0 0,122.87162 19.286553,0 0,-124.03088 c 0,-3.24575 1.928715,-5.79574 4.383226,-5.79574 l 10.519909,0 c 2.454714,0 4.383226,2.55026 4.383226,5.79574 l 0,22.02427 11.396627,0 c 0.525999,0 0.876729,0.46375 0.876729,1.15925 0,0.69551 -0.35073,1.15926 -0.876729,1.15926 l -11.396627,0 0,99.6881 16.656584,0 c 1.40271,0 2.62998,-1.6226 2.62998,-3.4774 l 0,-106.64348 c 0,-1.85476 -1.22727,-3.4775 -2.62998,-3.4775 l -10.519913,0 c -0.525986,0 -0.87673,-0.46376 -0.87673,-1.15926 0,-0.69549 0.350744,-1.15926 0.87673,-1.15926 l 10.519913,0 c 2.45471,0 4.38322,2.55026 4.38322,5.79574 l 0,106.64316 c 2e-4,3.246 -1.92851,5.7962 -4.38322,5.7962 z m -34.189691,-2.3185 15.779853,0 0,-124.03058 c 0,-2.08649 -1.051987,-3.47748 -2.629972,-3.47748 l -10.519909,0 c -1.402717,0 -2.629972,1.62273 -2.629972,3.47748 l 0,8.11427 9.64318,0 c 0.525987,0 0.876718,0.46375 0.876718,1.15924 0,0.69552 -0.350731,1.15926 -0.876718,1.15926 l -9.64318,0 0,113.59781 z m -45.586123,0 22.793062,0 0,-128.66732 c 0,-2.0865 -1.051986,-3.47749 -2.629972,-3.47749 l -17.533106,0 c -1.402729,0 -2.629984,1.62274 -2.629984,3.47749 l 0,8.11424 16.656582,0 c 0.525999,0 0.87673,0.46377 0.87673,1.15925 0,0.69551 -0.350731,1.15926 -0.87673,1.15926 l -16.656582,0 0,118.23457 z m 76.269316,-11.5914 -7.01321,0 c -0.525986,0 -0.876716,-0.4638 -0.876716,-1.1592 0,-0.6957 0.35073,-1.1592 0.876716,-1.1592 l 7.01321,0 c 0.525987,0 0.876729,0.4635 0.876729,1.1592 -2.05e-4,0.6954 -0.350742,1.1592 -0.876729,1.1592 z m -21.039821,0 -3.506701,0 c -0.525985,0 -0.876729,-0.4638 -0.876729,-1.1592 0,-0.6957 0.350744,-1.1592 0.876729,-1.1592 l 3.506701,0 c 0.526,0 0.876731,0.4635 0.876731,1.1592 -2.05e-4,0.6954 -0.350731,1.1592 -0.876731,1.1592 z m -17.533298,0 -7.013209,0 c -0.526,0 -0.876729,-0.4638 -0.876729,-1.1592 0,-0.6957 0.350729,-1.1592 0.876729,-1.1592 l 7.013209,0 c 0.525987,0 0.876716,0.4635 0.876716,1.1592 0,0.6954 -0.350729,1.1592 -0.876716,1.1592 z m -21.03982,0 -10.519897,0 c -0.525999,0 -0.87673,-0.4638 -0.87673,-1.1592 0,-0.6957 0.350731,-1.1592 0.87673,-1.1592 l 10.519897,0 c 0.525999,0 0.87673,0.4635 0.87673,1.1592 0,0.6954 -0.350731,1.1592 -0.87673,1.1592 z m -24.546303,0 -3.506701,0 c -0.525999,0 -0.876729,-0.4638 -0.876729,-1.1592 0,-0.6957 0.35073,-1.1592 0.876729,-1.1592 l 3.506701,0 c 0.525999,0 0.87673,0.4635 0.87673,1.1592 -2.05e-4,0.6954 -0.350731,1.1592 -0.87673,1.1592 z m 84.159242,-9.2735 -7.01321,0 c -0.525986,0 -0.876716,-0.4638 -0.876716,-1.1592 0,-0.6956 0.35073,-1.1592 0.876716,-1.1592 l 7.01321,0 c 0.525987,0 0.876729,0.4636 0.876729,1.1592 -2.05e-4,0.6956 -0.350742,1.1592 -0.876729,1.1592 z m -21.039821,0 -3.506701,0 c -0.525985,0 -0.876729,-0.4638 -0.876729,-1.1592 0,-0.6956 0.350744,-1.1592 0.876729,-1.1592 l 3.506701,0 c 0.526,0 0.876731,0.4636 0.876731,1.1592 -2.05e-4,0.6956 -0.350731,1.1592 -0.876731,1.1592 z m -17.533298,0 -7.013209,0 c -0.526,0 -0.876729,-0.4638 -0.876729,-1.1592 0,-0.6956 0.350729,-1.1592 0.876729,-1.1592 l 7.013209,0 c 0.525987,0 0.876716,0.4636 0.876716,1.1592 0,0.6956 -0.350729,1.1592 -0.876716,1.1592 z m -21.03982,0 -10.519897,0 c -0.525999,0 -0.87673,-0.4638 -0.87673,-1.1592 0,-0.6956 0.350731,-1.1592 0.87673,-1.1592 l 10.519897,0 c 0.525999,0 0.87673,0.4636 0.87673,1.1592 0,0.6956 -0.350731,1.1592 -0.87673,1.1592 z m -24.546303,0 -3.506701,0 c -0.525999,0 -0.876729,-0.4638 -0.876729,-1.1592 0,-0.6956 0.35073,-1.1592 0.876729,-1.1592 l 3.506701,0 c 0.525999,0 0.87673,0.4636 0.87673,1.1592 -2.05e-4,0.6956 -0.350731,1.1592 -0.87673,1.1592 z m 84.159242,-32.45644 c -0.526,0 -0.87673,-0.46375 -0.87673,-1.15926 l 0,-23.18324 c 0,-0.69549 0.35073,-1.15925 0.87673,-1.15925 0.525987,0 0.876729,0.46376 0.876729,1.15925 l 0,23.18324 c -2.05e-4,0.69551 -0.350742,1.15926 -0.876729,1.15926 z m -7.013415,0 c -0.525986,0 -0.87673,-0.46375 -0.87673,-1.15926 l 0,-23.18324 c 0,-0.69549 0.350744,-1.15925 0.87673,-1.15925 0.526,0 0.87673,0.46376 0.87673,1.15925 l 0,23.18324 c 0,0.69551 -0.35073,1.15926 -0.87673,1.15926 z m -31.559704,-9.27353 -7.013209,0 c -0.526,0 -0.876729,-0.46374 -0.876729,-1.15924 l 0,-32.45648 c 0,-0.69549 0.350729,-1.15924 0.876729,-1.15924 l 7.013209,0 c 0.525987,0 0.876716,0.46375 0.876716,1.15924 l 0,32.45675 c 0,0.69552 -0.350729,1.15897 -0.876716,1.15897 z m -6.136479,-2.31822 5.259954,0 0,-30.13824 -5.259954,0 0,30.13824 z m -14.903341,2.31822 -10.519897,0 c -0.525999,0 -0.87673,-0.46374 -0.87673,-1.15924 l 0,-32.45648 c 0,-0.69549 0.350731,-1.15924 0.87673,-1.15924 l 10.519897,0 c 0.525999,0 0.87673,0.46375 0.87673,1.15924 l 0,32.45675 c 0,0.69552 -0.350731,1.15897 -0.87673,1.15897 z m -9.643168,-2.31822 8.766656,0 0,-30.13824 -8.766656,0 0,30.13824 z m -14.903135,-2.31825 -3.506701,0 c -0.525999,0 -0.876729,-0.46375 -0.876729,-1.15925 0,-0.6955 0.35073,-1.15925 0.876729,-1.15925 l 3.506701,0 c 0.525999,0 0.87673,0.46375 0.87673,1.15925 0,0.6955 -0.350731,1.15925 -0.87673,1.15925 z m 63.119421,-9.27351 -3.506701,0 c -0.525985,0 -0.876729,-0.46374 -0.876729,-1.15926 0,-0.69549 0.350744,-1.15924 0.876729,-1.15924 l 3.506701,0 c 0.526,0 0.876731,0.46375 0.876731,1.15924 -2.05e-4,0.69578 -0.350731,1.15926 -0.876731,1.15926 z m -63.119421,0 -3.506701,0 c -0.525999,0 -0.876729,-0.46374 -0.876729,-1.15926 0,-0.69549 0.35073,-1.15924 0.876729,-1.15924 l 3.506701,0 c 0.525999,0 0.87673,0.46375 0.87673,1.15924 -2.05e-4,0.69578 -0.350731,1.15926 -0.87673,1.15926 z m 63.119421,-9.27324 -3.506701,0 c -0.525985,0 -0.876729,-0.46375 -0.876729,-1.15924 0,-0.6955 0.350744,-1.15926 0.876729,-1.15926 l 3.506701,0 c 0.526,0 0.876731,0.46376 0.876731,1.15926 -2.05e-4,0.69549 -0.350731,1.15924 -0.876731,1.15924 z m 0,-9.27324 -3.506701,0 c -0.525985,0 -0.876729,-0.46374 -0.876729,-1.15926 0,-0.69549 0.350744,-1.15924 0.876729,-1.15924 l 3.506701,0 c 0.526,0 0.876731,0.46375 0.876731,1.15924 -2.05e-4,0.69552 -0.350731,1.15926 -0.876731,1.15926 z"
       id="path23" />
    <g
       id="g25"
       transform="translate(58.888905,547.08035)" />
    <g
       id="g27"
       transform="translate(58.888905,547.08035)" />
    <g
       id="g29"
       transform="translate(58.888905,547.08035)" />
    <g
       id="g31"
       transform="translate(58.888905,547.08035)" />
    <g
       id="g33"
       transform="translate(58.888905,547.08035)" />
    <g
       id="g35"
       transform="translate(58.888905,547.08035)" />
    <g
       id="g37"
       transform="translate(58.888905,547.08035)" />
    <g
       id="g39"
       transform="translate(58.888905,547.08035)" />
    <g
       id="g41"
       transform="translate(58.888905,547.08035)" />
    <g
       id="g43"
       transform="translate(58.888905,547.08035)" />
    <g
       id="g45"
       transform="translate(58.888905,547.08035)" />
    <g
       id="g47"
       transform="translate(58.888905,547.08035)" />
    <g
       id="g49"
       transform="translate(58.888905,547.08035)" />
    <g
       id="g51"
       transform="translate(58.888905,547.08035)" />
    <g
       id="g53"
       transform="translate(58.888905,547.08035)" />
  </g>
</svg>
